<svg width="32" height="32" viewBox="0 0 32 32" fill="none" xmlns="http://www.w3.org/2000/svg">
<path d="M15.9989 29.9978C25.3333 29.9978 29.9978 23.7303 29.9978 15.9989C29.9978 8.26751 25.3333 2 15.9989 2C6.66443 2 2 8.26751 2 15.9989C2 23.7303 6.66443 29.9978 15.9989 29.9978Z" fill="url(#paint0_radial_31_62)"/>
<path d="M15.9989 29.9978C25.3333 29.9978 29.9978 23.7303 29.9978 15.9989C29.9978 8.26751 25.3333 2 15.9989 2C6.66443 2 2 8.26751 2 15.9989C2 23.7303 6.66443 29.9978 15.9989 29.9978Z" fill="url(#paint1_radial_31_62)"/>
<path d="M15.9989 29.9978C25.3333 29.9978 29.9978 23.7303 29.9978 15.9989C29.9978 8.26751 25.3333 2 15.9989 2C6.66443 2 2 8.26751 2 15.9989C2 23.7303 6.66443 29.9978 15.9989 29.9978Z" fill="url(#paint2_radial_31_62)" fill-opacity="0.6"/>
<path d="M15.9989 29.9978C25.3333 29.9978 29.9978 23.7303 29.9978 15.9989C29.9978 8.26751 25.3333 2 15.9989 2C6.66443 2 2 8.26751 2 15.9989C2 23.7303 6.66443 29.9978 15.9989 29.9978Z" fill="url(#paint3_radial_31_62)"/>
<path d="M15.9989 29.9978C25.3333 29.9978 29.9978 23.7303 29.9978 15.9989C29.9978 8.26751 25.3333 2 15.9989 2C6.66443 2 2 8.26751 2 15.9989C2 23.7303 6.66443 29.9978 15.9989 29.9978Z" fill="url(#paint4_radial_31_62)"/>
<path d="M15.9989 29.9978C25.3333 29.9978 29.9978 23.7303 29.9978 15.9989C29.9978 8.26751 25.3333 2 15.9989 2C6.66443 2 2 8.26751 2 15.9989C2 23.7303 6.66443 29.9978 15.9989 29.9978Z" fill="url(#paint5_radial_31_62)"/>
<path d="M15.9989 29.9978C25.3333 29.9978 29.9978 23.7303 29.9978 15.9989C29.9978 8.26751 25.3333 2 15.9989 2C6.66443 2 2 8.26751 2 15.9989C2 23.7303 6.66443 29.9978 15.9989 29.9978Z" fill="url(#paint6_radial_31_62)"/>
<path d="M15.9989 29.9978C25.3333 29.9978 29.9978 23.7303 29.9978 15.9989C29.9978 8.26751 25.3333 2 15.9989 2C6.66443 2 2 8.26751 2 15.9989C2 23.7303 6.66443 29.9978 15.9989 29.9978Z" fill="url(#paint7_radial_31_62)"/>
<path d="M15.9989 29.9978C25.3333 29.9978 29.9978 23.7303 29.9978 15.9989C29.9978 8.26751 25.3333 2 15.9989 2C6.66443 2 2 8.26751 2 15.9989C2 23.7303 6.66443 29.9978 15.9989 29.9978Z" fill="url(#paint8_radial_31_62)"/>
<path d="M15.9989 29.9978C25.3333 29.9978 29.9978 23.7303 29.9978 15.9989C29.9978 8.26751 25.3333 2 15.9989 2C6.66443 2 2 8.26751 2 15.9989C2 23.7303 6.66443 29.9978 15.9989 29.9978Z" fill="url(#paint9_radial_31_62)"/>
<path d="M15.9989 29.9978C25.3333 29.9978 29.9978 23.7303 29.9978 15.9989C29.9978 8.26751 25.3333 2 15.9989 2C6.66443 2 2 8.26751 2 15.9989C2 23.7303 6.66443 29.9978 15.9989 29.9978Z" fill="url(#paint10_radial_31_62)"/>
<path d="M15.9989 29.9978C25.3333 29.9978 29.9978 23.7303 29.9978 15.9989C29.9978 8.26751 25.3333 2 15.9989 2C6.66443 2 2 8.26751 2 15.9989C2 23.7303 6.66443 29.9978 15.9989 29.9978Z" fill="url(#paint11_radial_31_62)"/>
<path d="M15.9989 29.9978C25.3333 29.9978 29.9978 23.7303 29.9978 15.9989C29.9978 8.26751 25.3333 2 15.9989 2C6.66443 2 2 8.26751 2 15.9989C2 23.7303 6.66443 29.9978 15.9989 29.9978Z" fill="url(#paint12_radial_31_62)"/>
<path d="M15.9989 29.9978C25.3333 29.9978 29.9978 23.7303 29.9978 15.9989C29.9978 8.26751 25.3333 2 15.9989 2C6.66443 2 2 8.26751 2 15.9989C2 23.7303 6.66443 29.9978 15.9989 29.9978Z" fill="url(#paint13_radial_31_62)"/>
<path fill-rule="evenodd" clip-rule="evenodd" d="M13.7041 19.7142C13.6841 19.7311 13.6642 19.748 13.6442 19.7648C13.2217 20.1206 12.5909 20.0665 12.2351 19.6441C11.8794 19.2217 11.9334 18.5908 12.3559 18.235C12.374 18.2197 12.3941 18.2027 12.4159 18.184C12.6457 17.9878 13.0774 17.6192 13.6916 17.3436C14.3838 17.0329 15.2722 16.8506 16.391 17.01C17.528 17.1719 18.3345 17.6287 18.9022 18.1672C19.4416 18.6788 19.7288 19.2328 19.8774 19.5195C19.8809 19.5263 19.8843 19.5329 19.8876 19.5394C20.142 20.0296 19.9508 20.6332 19.4606 20.8876C18.9704 21.1419 18.3668 20.9507 18.1124 20.4605C17.9724 20.1906 17.8133 19.8909 17.5258 19.6183C17.254 19.3604 16.8282 19.0924 16.109 18.99C15.3717 18.885 14.8645 19.0094 14.5104 19.1683C14.1668 19.3225 13.9334 19.52 13.7041 19.7142Z" fill="url(#paint14_radial_31_62)"/>
<path fill-rule="evenodd" clip-rule="evenodd" d="M13.7041 19.7142C13.6841 19.7311 13.6642 19.748 13.6442 19.7648C13.2217 20.1206 12.5909 20.0665 12.2351 19.6441C11.8794 19.2217 11.9334 18.5908 12.3559 18.235C12.374 18.2197 12.3941 18.2027 12.4159 18.184C12.6457 17.9878 13.0774 17.6192 13.6916 17.3436C14.3838 17.0329 15.2722 16.8506 16.391 17.01C17.528 17.1719 18.3345 17.6287 18.9022 18.1672C19.4416 18.6788 19.7288 19.2328 19.8774 19.5195C19.8809 19.5263 19.8843 19.5329 19.8876 19.5394C20.142 20.0296 19.9508 20.6332 19.4606 20.8876C18.9704 21.1419 18.3668 20.9507 18.1124 20.4605C17.9724 20.1906 17.8133 19.8909 17.5258 19.6183C17.254 19.3604 16.8282 19.0924 16.109 18.99C15.3717 18.885 14.8645 19.0094 14.5104 19.1683C14.1668 19.3225 13.9334 19.52 13.7041 19.7142Z" fill="url(#paint15_radial_31_62)"/>
<path fill-rule="evenodd" clip-rule="evenodd" d="M13.7041 19.7142C13.6841 19.7311 13.6642 19.748 13.6442 19.7648C13.2217 20.1206 12.5909 20.0665 12.2351 19.6441C11.8794 19.2217 11.9334 18.5908 12.3559 18.235C12.374 18.2197 12.3941 18.2027 12.4159 18.184C12.6457 17.9878 13.0774 17.6192 13.6916 17.3436C14.3838 17.0329 15.2722 16.8506 16.391 17.01C17.528 17.1719 18.3345 17.6287 18.9022 18.1672C19.4416 18.6788 19.7288 19.2328 19.8774 19.5195C19.8809 19.5263 19.8843 19.5329 19.8876 19.5394C20.142 20.0296 19.9508 20.6332 19.4606 20.8876C18.9704 21.1419 18.3668 20.9507 18.1124 20.4605C17.9724 20.1906 17.8133 19.8909 17.5258 19.6183C17.254 19.3604 16.8282 19.0924 16.109 18.99C15.3717 18.885 14.8645 19.0094 14.5104 19.1683C14.1668 19.3225 13.9334 19.52 13.7041 19.7142Z" fill="url(#paint16_radial_31_62)"/>
<path d="M10.4191 16.2244C12.742 16.2244 14.6251 14.3414 14.6251 12.0185C14.6251 9.69557 12.742 7.8125 10.4191 7.8125C8.09621 7.8125 6.21313 9.69557 6.21313 12.0185C6.21313 14.3414 8.09621 16.2244 10.4191 16.2244Z" fill="white"/>
<path d="M21.5683 16.3011C23.9123 16.3011 25.8126 14.4009 25.8126 12.0568C25.8126 9.71274 23.9123 7.8125 21.5683 7.8125C19.2242 7.8125 17.324 9.71274 17.324 12.0568C17.324 14.4009 19.2242 16.3011 21.5683 16.3011Z" fill="white"/>
<path fill-rule="evenodd" clip-rule="evenodd" d="M10 13.5C11.1046 13.5 12 12.6046 12 11.5C12 10.3954 11.1046 9.5 10 9.5C8.89543 9.5 8 10.3954 8 11.5C8 12.6046 8.89543 13.5 10 13.5ZM21 13.5C22.1046 13.5 23 12.6046 23 11.5C23 10.3954 22.1046 9.5 21 9.5C19.8954 9.5 19 10.3954 19 11.5C19 12.6046 19.8954 13.5 21 13.5Z" fill="url(#paint17_linear_31_62)"/>
<path d="M13.5 26.45H13.0938L13.4878 26.5485L13.4878 26.5485L13.4879 26.5485L13.4882 26.5486L13.49 26.5491L13.4976 26.5512C13.5044 26.5531 13.5146 26.5561 13.5277 26.5603C13.5539 26.5687 13.5916 26.5819 13.637 26.6008C13.728 26.6388 13.8491 26.6994 13.97 26.79C14.2109 26.9707 14.45 27.2696 14.45 27.75C14.45 28.0517 14.3598 28.2749 14.2266 28.4414C14.0927 28.6087 13.9131 28.7216 13.7307 28.7976C13.5484 28.8736 13.3654 28.9118 13.2274 28.9309C13.1586 28.9405 13.1013 28.9453 13.0614 28.9476C13.0415 28.9488 13.0259 28.9494 13.0154 28.9497L13.0036 28.95L13.0007 28.95L13.0001 28.95H12.9999H12.9999L12.9999 29V29.05C13 29.05 13 29.05 13 29.05C13.5246 29.05 13.9499 29.4753 13.9499 30C13.9499 30.5247 13.5246 30.95 12.9999 30.95H9.99994C9.91827 30.95 9.83517 30.9503 9.75072 30.9506C8.28255 30.9557 6.40787 30.9623 4.53118 29.461C3.29939 28.4755 2.92673 26.8716 3.23637 25.3852C3.54606 23.8986 4.53614 22.5406 6.01576 22.0474C6.24232 21.9719 6.42019 21.7935 6.55978 21.5545C6.69941 21.3155 6.80338 21.0116 6.88067 20.6767C7.03528 20.0067 7.08536 19.2022 7.09371 18.5179C7.10338 17.7244 7.73062 17.05 8.51902 17.05C9.29457 17.05 9.9109 17.7015 9.86789 18.4759L9.75441 20.519C9.72331 21.0789 10.169 21.55 10.7298 21.55H15.7499C16.4127 21.55 16.9499 22.0873 16.9499 22.75C16.9499 23.4127 16.4127 23.95 15.7499 23.95H13.9999H13.7881L13.9776 24.0447L14.2943 24.2031C14.6961 24.404 14.9499 24.8147 14.9499 25.2639C14.9499 25.919 14.4189 26.45 13.7639 26.45H13.5Z" fill="url(#paint18_radial_31_62)"/>
<path d="M13.5 26.45H13.0938L13.4878 26.5485L13.4878 26.5485L13.4879 26.5485L13.4882 26.5486L13.49 26.5491L13.4976 26.5512C13.5044 26.5531 13.5146 26.5561 13.5277 26.5603C13.5539 26.5687 13.5916 26.5819 13.637 26.6008C13.728 26.6388 13.8491 26.6994 13.97 26.79C14.2109 26.9707 14.45 27.2696 14.45 27.75C14.45 28.0517 14.3598 28.2749 14.2266 28.4414C14.0927 28.6087 13.9131 28.7216 13.7307 28.7976C13.5484 28.8736 13.3654 28.9118 13.2274 28.9309C13.1586 28.9405 13.1013 28.9453 13.0614 28.9476C13.0415 28.9488 13.0259 28.9494 13.0154 28.9497L13.0036 28.95L13.0007 28.95L13.0001 28.95H12.9999H12.9999L12.9999 29V29.05C13 29.05 13 29.05 13 29.05C13.5246 29.05 13.9499 29.4753 13.9499 30C13.9499 30.5247 13.5246 30.95 12.9999 30.95H9.99994C9.91827 30.95 9.83517 30.9503 9.75072 30.9506C8.28255 30.9557 6.40787 30.9623 4.53118 29.461C3.29939 28.4755 2.92673 26.8716 3.23637 25.3852C3.54606 23.8986 4.53614 22.5406 6.01576 22.0474C6.24232 21.9719 6.42019 21.7935 6.55978 21.5545C6.69941 21.3155 6.80338 21.0116 6.88067 20.6767C7.03528 20.0067 7.08536 19.2022 7.09371 18.5179C7.10338 17.7244 7.73062 17.05 8.51902 17.05C9.29457 17.05 9.9109 17.7015 9.86789 18.4759L9.75441 20.519C9.72331 21.0789 10.169 21.55 10.7298 21.55H15.7499C16.4127 21.55 16.9499 22.0873 16.9499 22.75C16.9499 23.4127 16.4127 23.95 15.7499 23.95H13.9999H13.7881L13.9776 24.0447L14.2943 24.2031C14.6961 24.404 14.9499 24.8147 14.9499 25.2639C14.9499 25.919 14.4189 26.45 13.7639 26.45H13.5Z" fill="url(#paint19_radial_31_62)"/>
<path d="M13.5 26.45H13.0938L13.4878 26.5485L13.4878 26.5485L13.4879 26.5485L13.4882 26.5486L13.49 26.5491L13.4976 26.5512C13.5044 26.5531 13.5146 26.5561 13.5277 26.5603C13.5539 26.5687 13.5916 26.5819 13.637 26.6008C13.728 26.6388 13.8491 26.6994 13.97 26.79C14.2109 26.9707 14.45 27.2696 14.45 27.75C14.45 28.0517 14.3598 28.2749 14.2266 28.4414C14.0927 28.6087 13.9131 28.7216 13.7307 28.7976C13.5484 28.8736 13.3654 28.9118 13.2274 28.9309C13.1586 28.9405 13.1013 28.9453 13.0614 28.9476C13.0415 28.9488 13.0259 28.9494 13.0154 28.9497L13.0036 28.95L13.0007 28.95L13.0001 28.95H12.9999H12.9999L12.9999 29V29.05C13 29.05 13 29.05 13 29.05C13.5246 29.05 13.9499 29.4753 13.9499 30C13.9499 30.5247 13.5246 30.95 12.9999 30.95H9.99994C9.91827 30.95 9.83517 30.9503 9.75072 30.9506C8.28255 30.9557 6.40787 30.9623 4.53118 29.461C3.29939 28.4755 2.92673 26.8716 3.23637 25.3852C3.54606 23.8986 4.53614 22.5406 6.01576 22.0474C6.24232 21.9719 6.42019 21.7935 6.55978 21.5545C6.69941 21.3155 6.80338 21.0116 6.88067 20.6767C7.03528 20.0067 7.08536 19.2022 7.09371 18.5179C7.10338 17.7244 7.73062 17.05 8.51902 17.05C9.29457 17.05 9.9109 17.7015 9.86789 18.4759L9.75441 20.519C9.72331 21.0789 10.169 21.55 10.7298 21.55H15.7499C16.4127 21.55 16.9499 22.0873 16.9499 22.75C16.9499 23.4127 16.4127 23.95 15.7499 23.95H13.9999H13.7881L13.9776 24.0447L14.2943 24.2031C14.6961 24.404 14.9499 24.8147 14.9499 25.2639C14.9499 25.919 14.4189 26.45 13.7639 26.45H13.5Z" fill="url(#paint20_radial_31_62)"/>
<path d="M13.5 26.45H13.0938L13.4878 26.5485L13.4878 26.5485L13.4879 26.5485L13.4882 26.5486L13.49 26.5491L13.4976 26.5512C13.5044 26.5531 13.5146 26.5561 13.5277 26.5603C13.5539 26.5687 13.5916 26.5819 13.637 26.6008C13.728 26.6388 13.8491 26.6994 13.97 26.79C14.2109 26.9707 14.45 27.2696 14.45 27.75C14.45 28.0517 14.3598 28.2749 14.2266 28.4414C14.0927 28.6087 13.9131 28.7216 13.7307 28.7976C13.5484 28.8736 13.3654 28.9118 13.2274 28.9309C13.1586 28.9405 13.1013 28.9453 13.0614 28.9476C13.0415 28.9488 13.0259 28.9494 13.0154 28.9497L13.0036 28.95L13.0007 28.95L13.0001 28.95H12.9999H12.9999L12.9999 29V29.05C13 29.05 13 29.05 13 29.05C13.5246 29.05 13.9499 29.4753 13.9499 30C13.9499 30.5247 13.5246 30.95 12.9999 30.95H9.99994C9.91827 30.95 9.83517 30.9503 9.75072 30.9506C8.28255 30.9557 6.40787 30.9623 4.53118 29.461C3.29939 28.4755 2.92673 26.8716 3.23637 25.3852C3.54606 23.8986 4.53614 22.5406 6.01576 22.0474C6.24232 21.9719 6.42019 21.7935 6.55978 21.5545C6.69941 21.3155 6.80338 21.0116 6.88067 20.6767C7.03528 20.0067 7.08536 19.2022 7.09371 18.5179C7.10338 17.7244 7.73062 17.05 8.51902 17.05C9.29457 17.05 9.9109 17.7015 9.86789 18.4759L9.75441 20.519C9.72331 21.0789 10.169 21.55 10.7298 21.55H15.7499C16.4127 21.55 16.9499 22.0873 16.9499 22.75C16.9499 23.4127 16.4127 23.95 15.7499 23.95H13.9999H13.7881L13.9776 24.0447L14.2943 24.2031C14.6961 24.404 14.9499 24.8147 14.9499 25.2639C14.9499 25.919 14.4189 26.45 13.7639 26.45H13.5Z" fill="url(#paint21_radial_31_62)"/>
<path d="M13.5 26.45H13.0938L13.4878 26.5485L13.4878 26.5485L13.4879 26.5485L13.4882 26.5486L13.49 26.5491L13.4976 26.5512C13.5044 26.5531 13.5146 26.5561 13.5277 26.5603C13.5539 26.5687 13.5916 26.5819 13.637 26.6008C13.728 26.6388 13.8491 26.6994 13.97 26.79C14.2109 26.9707 14.45 27.2696 14.45 27.75C14.45 28.0517 14.3598 28.2749 14.2266 28.4414C14.0927 28.6087 13.9131 28.7216 13.7307 28.7976C13.5484 28.8736 13.3654 28.9118 13.2274 28.9309C13.1586 28.9405 13.1013 28.9453 13.0614 28.9476C13.0415 28.9488 13.0259 28.9494 13.0154 28.9497L13.0036 28.95L13.0007 28.95L13.0001 28.95H12.9999H12.9999L12.9999 29V29.05C13 29.05 13 29.05 13 29.05C13.5246 29.05 13.9499 29.4753 13.9499 30C13.9499 30.5247 13.5246 30.95 12.9999 30.95H9.99994C9.91827 30.95 9.83517 30.9503 9.75072 30.9506C8.28255 30.9557 6.40787 30.9623 4.53118 29.461C3.29939 28.4755 2.92673 26.8716 3.23637 25.3852C3.54606 23.8986 4.53614 22.5406 6.01576 22.0474C6.24232 21.9719 6.42019 21.7935 6.55978 21.5545C6.69941 21.3155 6.80338 21.0116 6.88067 20.6767C7.03528 20.0067 7.08536 19.2022 7.09371 18.5179C7.10338 17.7244 7.73062 17.05 8.51902 17.05C9.29457 17.05 9.9109 17.7015 9.86789 18.4759L9.75441 20.519C9.72331 21.0789 10.169 21.55 10.7298 21.55H15.7499C16.4127 21.55 16.9499 22.0873 16.9499 22.75C16.9499 23.4127 16.4127 23.95 15.7499 23.95H13.9999H13.7881L13.9776 24.0447L14.2943 24.2031C14.6961 24.404 14.9499 24.8147 14.9499 25.2639C14.9499 25.919 14.4189 26.45 13.7639 26.45H13.5Z" fill="url(#paint22_radial_31_62)"/>
<path d="M13.5 26.45H13.0938L13.4878 26.5485L13.4878 26.5485L13.4879 26.5485L13.4882 26.5486L13.49 26.5491L13.4976 26.5512C13.5044 26.5531 13.5146 26.5561 13.5277 26.5603C13.5539 26.5687 13.5916 26.5819 13.637 26.6008C13.728 26.6388 13.8491 26.6994 13.97 26.79C14.2109 26.9707 14.45 27.2696 14.45 27.75C14.45 28.0517 14.3598 28.2749 14.2266 28.4414C14.0927 28.6087 13.9131 28.7216 13.7307 28.7976C13.5484 28.8736 13.3654 28.9118 13.2274 28.9309C13.1586 28.9405 13.1013 28.9453 13.0614 28.9476C13.0415 28.9488 13.0259 28.9494 13.0154 28.9497L13.0036 28.95L13.0007 28.95L13.0001 28.95H12.9999H12.9999L12.9999 29V29.05C13 29.05 13 29.05 13 29.05C13.5246 29.05 13.9499 29.4753 13.9499 30C13.9499 30.5247 13.5246 30.95 12.9999 30.95H9.99994C9.91827 30.95 9.83517 30.9503 9.75072 30.9506C8.28255 30.9557 6.40787 30.9623 4.53118 29.461C3.29939 28.4755 2.92673 26.8716 3.23637 25.3852C3.54606 23.8986 4.53614 22.5406 6.01576 22.0474C6.24232 21.9719 6.42019 21.7935 6.55978 21.5545C6.69941 21.3155 6.80338 21.0116 6.88067 20.6767C7.03528 20.0067 7.08536 19.2022 7.09371 18.5179C7.10338 17.7244 7.73062 17.05 8.51902 17.05C9.29457 17.05 9.9109 17.7015 9.86789 18.4759L9.75441 20.519C9.72331 21.0789 10.169 21.55 10.7298 21.55H15.7499C16.4127 21.55 16.9499 22.0873 16.9499 22.75C16.9499 23.4127 16.4127 23.95 15.7499 23.95H13.9999H13.7881L13.9776 24.0447L14.2943 24.2031C14.6961 24.404 14.9499 24.8147 14.9499 25.2639C14.9499 25.919 14.4189 26.45 13.7639 26.45H13.5Z" fill="url(#paint23_radial_31_62)"/>
<path d="M13.5 26.45H13.0938L13.4878 26.5485L13.4878 26.5485L13.4879 26.5485L13.4882 26.5486L13.49 26.5491L13.4976 26.5512C13.5044 26.5531 13.5146 26.5561 13.5277 26.5603C13.5539 26.5687 13.5916 26.5819 13.637 26.6008C13.728 26.6388 13.8491 26.6994 13.97 26.79C14.2109 26.9707 14.45 27.2696 14.45 27.75C14.45 28.0517 14.3598 28.2749 14.2266 28.4414C14.0927 28.6087 13.9131 28.7216 13.7307 28.7976C13.5484 28.8736 13.3654 28.9118 13.2274 28.9309C13.1586 28.9405 13.1013 28.9453 13.0614 28.9476C13.0415 28.9488 13.0259 28.9494 13.0154 28.9497L13.0036 28.95L13.0007 28.95L13.0001 28.95H12.9999H12.9999L12.9999 29V29.05C13 29.05 13 29.05 13 29.05C13.5246 29.05 13.9499 29.4753 13.9499 30C13.9499 30.5247 13.5246 30.95 12.9999 30.95H9.99994C9.91827 30.95 9.83517 30.9503 9.75072 30.9506C8.28255 30.9557 6.40787 30.9623 4.53118 29.461C3.29939 28.4755 2.92673 26.8716 3.23637 25.3852C3.54606 23.8986 4.53614 22.5406 6.01576 22.0474C6.24232 21.9719 6.42019 21.7935 6.55978 21.5545C6.69941 21.3155 6.80338 21.0116 6.88067 20.6767C7.03528 20.0067 7.08536 19.2022 7.09371 18.5179C7.10338 17.7244 7.73062 17.05 8.51902 17.05C9.29457 17.05 9.9109 17.7015 9.86789 18.4759L9.75441 20.519C9.72331 21.0789 10.169 21.55 10.7298 21.55H15.7499C16.4127 21.55 16.9499 22.0873 16.9499 22.75C16.9499 23.4127 16.4127 23.95 15.7499 23.95H13.9999H13.7881L13.9776 24.0447L14.2943 24.2031C14.6961 24.404 14.9499 24.8147 14.9499 25.2639C14.9499 25.919 14.4189 26.45 13.7639 26.45H13.5Z" fill="url(#paint24_radial_31_62)"/>
<path d="M13.5 26.45H13.0938L13.4878 26.5485L13.4878 26.5485L13.4879 26.5485L13.4882 26.5486L13.49 26.5491L13.4976 26.5512C13.5044 26.5531 13.5146 26.5561 13.5277 26.5603C13.5539 26.5687 13.5916 26.5819 13.637 26.6008C13.728 26.6388 13.8491 26.6994 13.97 26.79C14.2109 26.9707 14.45 27.2696 14.45 27.75C14.45 28.0517 14.3598 28.2749 14.2266 28.4414C14.0927 28.6087 13.9131 28.7216 13.7307 28.7976C13.5484 28.8736 13.3654 28.9118 13.2274 28.9309C13.1586 28.9405 13.1013 28.9453 13.0614 28.9476C13.0415 28.9488 13.0259 28.9494 13.0154 28.9497L13.0036 28.95L13.0007 28.95L13.0001 28.95H12.9999H12.9999L12.9999 29V29.05C13 29.05 13 29.05 13 29.05C13.5246 29.05 13.9499 29.4753 13.9499 30C13.9499 30.5247 13.5246 30.95 12.9999 30.95H9.99994C9.91827 30.95 9.83517 30.9503 9.75072 30.9506C8.28255 30.9557 6.40787 30.9623 4.53118 29.461C3.29939 28.4755 2.92673 26.8716 3.23637 25.3852C3.54606 23.8986 4.53614 22.5406 6.01576 22.0474C6.24232 21.9719 6.42019 21.7935 6.55978 21.5545C6.69941 21.3155 6.80338 21.0116 6.88067 20.6767C7.03528 20.0067 7.08536 19.2022 7.09371 18.5179C7.10338 17.7244 7.73062 17.05 8.51902 17.05C9.29457 17.05 9.9109 17.7015 9.86789 18.4759L9.75441 20.519C9.72331 21.0789 10.169 21.55 10.7298 21.55H15.7499C16.4127 21.55 16.9499 22.0873 16.9499 22.75C16.9499 23.4127 16.4127 23.95 15.7499 23.95H13.9999H13.7881L13.9776 24.0447L14.2943 24.2031C14.6961 24.404 14.9499 24.8147 14.9499 25.2639C14.9499 25.919 14.4189 26.45 13.7639 26.45H13.5Z" stroke="url(#paint25_linear_31_62)" stroke-width="0.1" stroke-miterlimit="10"/>
<path d="M14.3167 24.1584L14 24H8.5V26.5H13.7639C14.4466 26.5 15 25.9466 15 25.2639C15 24.7957 14.7355 24.3677 14.3167 24.1584Z" fill="url(#paint26_radial_31_62)"/>
<path d="M14.3167 24.1584L14 24H8.5V26.5H13.7639C14.4466 26.5 15 25.9466 15 25.2639C15 24.7957 14.7355 24.3677 14.3167 24.1584Z" fill="url(#paint27_radial_31_62)"/>
<path d="M14.3167 24.1584L14 24H8.5V26.5H13.7639C14.4466 26.5 15 25.9466 15 25.2639C15 24.7957 14.7355 24.3677 14.3167 24.1584Z" fill="url(#paint28_linear_31_62)"/>
<path d="M13.5 26.5H8.5V29H13C13 29 14.5 29 14.5 27.75C14.5 26.7536 13.5 26.5 13.5 26.5Z" fill="url(#paint29_radial_31_62)"/>
<path d="M13.5 26.5H8.5V29H13C13 29 14.5 29 14.5 27.75C14.5 26.7536 13.5 26.5 13.5 26.5Z" fill="url(#paint30_radial_31_62)"/>
<path d="M13.5 26.5H8.5V29H13C13 29 14.5 29 14.5 27.75C14.5 26.7536 13.5 26.5 13.5 26.5Z" fill="url(#paint31_linear_31_62)"/>
<path d="M13 29H8.5V31H13C13.5523 31 14 30.5523 14 30C14 29.4477 13.5523 29 13 29Z" fill="url(#paint32_radial_31_62)"/>
<path d="M13 29H8.5V31H13C13.5523 31 14 30.5523 14 30C14 29.4477 13.5523 29 13 29Z" fill="url(#paint33_linear_31_62)"/>
<path d="M13 29H8.5V31H13C13.5523 31 14 30.5523 14 30C14 29.4477 13.5523 29 13 29Z" fill="url(#paint34_radial_31_62)"/>
<path d="M15.75 21.5H8V24H15.75C16.4404 24 17 23.4404 17 22.75C17 22.0596 16.4404 21.5 15.75 21.5Z" fill="url(#paint35_linear_31_62)"/>
<path d="M15.75 21.5H8V24H15.75C16.4404 24 17 23.4404 17 22.75C17 22.0596 16.4404 21.5 15.75 21.5Z" fill="url(#paint36_radial_31_62)"/>
<path d="M15.75 21.5H8V24H15.75C16.4404 24 17 23.4404 17 22.75C17 22.0596 16.4404 21.5 15.75 21.5Z" fill="url(#paint37_radial_31_62)"/>
<path d="M15.75 21.5H8V24H15.75C16.4404 24 17 23.4404 17 22.75C17 22.0596 16.4404 21.5 15.75 21.5Z" fill="url(#paint38_radial_31_62)"/>
<path fill-rule="evenodd" clip-rule="evenodd" d="M7.14645 4.14645C7.54338 3.74951 8.63008 3 10 3C11.3699 3 12.4566 3.74951 12.8536 4.14645C13.0488 4.34171 13.0488 4.65829 12.8536 4.85355C12.6583 5.04882 12.3417 5.04882 12.1464 4.85355C11.8767 4.58382 11.0301 4 10 4C8.96992 4 8.12329 4.58382 7.85355 4.85355C7.65829 5.04882 7.34171 5.04882 7.14645 4.85355C6.95118 4.65829 6.95118 4.34171 7.14645 4.14645Z" fill="url(#paint39_radial_31_62)"/>
<path fill-rule="evenodd" clip-rule="evenodd" d="M7.14645 4.14645C7.54338 3.74951 8.63008 3 10 3C11.3699 3 12.4566 3.74951 12.8536 4.14645C13.0488 4.34171 13.0488 4.65829 12.8536 4.85355C12.6583 5.04882 12.3417 5.04882 12.1464 4.85355C11.8767 4.58382 11.0301 4 10 4C8.96992 4 8.12329 4.58382 7.85355 4.85355C7.65829 5.04882 7.34171 5.04882 7.14645 4.85355C6.95118 4.65829 6.95118 4.34171 7.14645 4.14645Z" fill="url(#paint40_radial_31_62)"/>
<path fill-rule="evenodd" clip-rule="evenodd" d="M18.1464 8.14645C17.9512 8.34172 17.9512 8.65829 18.1464 8.85355C18.3409 9.04798 18.6556 9.04881 18.851 8.85606L18.8537 8.85354C18.8575 8.85 18.8649 8.84311 18.8761 8.83332C18.8985 8.81373 18.9356 8.78264 18.9875 8.74375C19.0913 8.66592 19.2534 8.55734 19.4736 8.44721C19.9125 8.22779 20.5864 8 21.5 8C22.4136 8 23.0875 8.22779 23.5264 8.44721C23.7466 8.55734 23.9087 8.66592 24.0125 8.74375C24.0643 8.78264 24.1015 8.81373 24.1239 8.83332C24.1351 8.84311 24.1425 8.85 24.1463 8.85354L24.149 8.85606C24.3444 9.04881 24.6591 9.04798 24.8536 8.85355C25.0488 8.65829 25.0488 8.34171 24.8536 8.14645L24.8528 8.14571L24.852 8.14488L24.85 8.14295L24.845 8.13801L24.8302 8.124C24.8184 8.11289 24.8024 8.0983 24.7824 8.08074C24.7423 8.04564 24.6856 7.99861 24.6125 7.94375C24.4663 7.83408 24.2534 7.69266 23.9736 7.55279C23.4125 7.27221 22.5864 7 21.5 7C20.4136 7 19.5875 7.27221 19.0264 7.55279C18.7466 7.69266 18.5337 7.83408 18.3875 7.94375C18.3143 7.99861 18.2577 8.04564 18.2176 8.08074C18.1976 8.0983 18.1816 8.11289 18.1697 8.124L18.155 8.13801L18.15 8.14295L18.148 8.14488L18.1472 8.14571L18.1464 8.14645Z" fill="url(#paint41_radial_31_62)"/>
<path fill-rule="evenodd" clip-rule="evenodd" d="M18.1464 8.14645C17.9512 8.34172 17.9512 8.65829 18.1464 8.85355C18.3409 9.04798 18.6556 9.04881 18.851 8.85606L18.8537 8.85354C18.8575 8.85 18.8649 8.84311 18.8761 8.83332C18.8985 8.81373 18.9356 8.78264 18.9875 8.74375C19.0913 8.66592 19.2534 8.55734 19.4736 8.44721C19.9125 8.22779 20.5864 8 21.5 8C22.4136 8 23.0875 8.22779 23.5264 8.44721C23.7466 8.55734 23.9087 8.66592 24.0125 8.74375C24.0643 8.78264 24.1015 8.81373 24.1239 8.83332C24.1351 8.84311 24.1425 8.85 24.1463 8.85354L24.149 8.85606C24.3444 9.04881 24.6591 9.04798 24.8536 8.85355C25.0488 8.65829 25.0488 8.34171 24.8536 8.14645L24.8528 8.14571L24.852 8.14488L24.85 8.14295L24.845 8.13801L24.8302 8.124C24.8184 8.11289 24.8024 8.0983 24.7824 8.08074C24.7423 8.04564 24.6856 7.99861 24.6125 7.94375C24.4663 7.83408 24.2534 7.69266 23.9736 7.55279C23.4125 7.27221 22.5864 7 21.5 7C20.4136 7 19.5875 7.27221 19.0264 7.55279C18.7466 7.69266 18.5337 7.83408 18.3875 7.94375C18.3143 7.99861 18.2577 8.04564 18.2176 8.08074C18.1976 8.0983 18.1816 8.11289 18.1697 8.124L18.155 8.13801L18.15 8.14295L18.148 8.14488L18.1472 8.14571L18.1464 8.14645Z" fill="url(#paint42_radial_31_62)"/>
<defs>
<radialGradient id="paint0_radial_31_62" cx="0" cy="0" r="1" gradientUnits="userSpaceOnUse" gradientTransform="translate(25.5 9) rotate(131.878) scale(38.9487)">
<stop stop-color="#FFF478"/>
<stop offset="0.474827" stop-color="#FFB02E"/>
<stop offset="1" stop-color="#F70A8D"/>
</radialGradient>
<radialGradient id="paint1_radial_31_62" cx="0" cy="0" r="1" gradientUnits="userSpaceOnUse" gradientTransform="translate(16 12.5) rotate(101.31) scale(17.8466 22.8581)">
<stop offset="0.787821" stop-color="#F59639" stop-opacity="0"/>
<stop offset="0.972509" stop-color="#FF7DCE"/>
</radialGradient>
<radialGradient id="paint2_radial_31_62" cx="0" cy="0" r="1" gradientUnits="userSpaceOnUse" gradientTransform="translate(18 14) rotate(135) scale(41.0122)">
<stop offset="0.314853" stop-opacity="0"/>
<stop offset="1"/>
</radialGradient>
<radialGradient id="paint3_radial_31_62" cx="0" cy="0" r="1" gradientUnits="userSpaceOnUse" gradientTransform="translate(16 17) rotate(77.692) scale(28.1469)">
<stop offset="0.507903" stop-color="#7D6133" stop-opacity="0"/>
<stop offset="1" stop-color="#715B32"/>
</radialGradient>
<radialGradient id="paint4_radial_31_62" cx="0" cy="0" r="1" gradientUnits="userSpaceOnUse" gradientTransform="translate(16.5 16.5) rotate(55.7131) scale(13.3135 9.65032)">
<stop stop-color="#FFB849"/>
<stop offset="1" stop-color="#FFB847" stop-opacity="0"/>
</radialGradient>
<radialGradient id="paint5_radial_31_62" cx="0" cy="0" r="1" gradientUnits="userSpaceOnUse" gradientTransform="translate(20.5 18) rotate(9.86581) scale(11.6726)">
<stop stop-color="#FFA64B"/>
<stop offset="0.900412" stop-color="#FFAE46" stop-opacity="0"/>
</radialGradient>
<radialGradient id="paint6_radial_31_62" cx="0" cy="0" r="1" gradientUnits="userSpaceOnUse" gradientTransform="translate(17.5 15) rotate(43.9708) scale(59.0529)">
<stop offset="0.185425" stop-opacity="0"/>
<stop offset="1" stop-opacity="0.4"/>
</radialGradient>
<radialGradient id="paint7_radial_31_62" cx="0" cy="0" r="1" gradientUnits="userSpaceOnUse" gradientTransform="translate(14.2745 28.0955) rotate(21.6444) scale(10.593)">
<stop stop-color="#F47360"/>
<stop offset="1" stop-color="#F47360" stop-opacity="0"/>
</radialGradient>
<radialGradient id="paint8_radial_31_62" cx="0" cy="0" r="1" gradientUnits="userSpaceOnUse" gradientTransform="translate(9.8337 12.9539) rotate(111.744) scale(5.0686)">
<stop offset="0.220588" stop-color="#392108"/>
<stop offset="1" stop-color="#C87928" stop-opacity="0"/>
</radialGradient>
<radialGradient id="paint9_radial_31_62" cx="0" cy="0" r="1" gradientUnits="userSpaceOnUse" gradientTransform="translate(20.6992 12.9272) rotate(114.702) scale(4.71403)">
<stop offset="0.301089" stop-color="#392108"/>
<stop offset="1" stop-color="#E87F14" stop-opacity="0"/>
</radialGradient>
<radialGradient id="paint10_radial_31_62" cx="0" cy="0" r="1" gradientUnits="userSpaceOnUse" gradientTransform="translate(9.28628 8.61715) rotate(43.6594) scale(4.08376 5.17219)">
<stop stop-color="#D59A13"/>
<stop offset="1" stop-color="#D59A13" stop-opacity="0"/>
</radialGradient>
<radialGradient id="paint11_radial_31_62" cx="0" cy="0" r="1" gradientUnits="userSpaceOnUse" gradientTransform="translate(9.41653 23.411) rotate(88.698) scale(4.89223 9.47732)">
<stop stop-color="#B06223"/>
<stop offset="1" stop-color="#C67C10" stop-opacity="0"/>
</radialGradient>
<radialGradient id="paint12_radial_31_62" cx="0" cy="0" r="1" gradientUnits="userSpaceOnUse" gradientTransform="translate(7.52177 20.6122) rotate(92.4408) scale(4.8918 3.92799)">
<stop stop-color="#B06223"/>
<stop offset="1" stop-color="#C67C10" stop-opacity="0"/>
</radialGradient>
<radialGradient id="paint13_radial_31_62" cx="0" cy="0" r="1" gradientUnits="userSpaceOnUse" gradientTransform="translate(8.38431 18.5109) rotate(144.605) scale(2.51765 3.05683)">
<stop stop-color="#D78E2C"/>
<stop offset="1" stop-color="#D78E2C" stop-opacity="0"/>
</radialGradient>
<radialGradient id="paint14_radial_31_62" cx="0" cy="0" r="1" gradientUnits="userSpaceOnUse" gradientTransform="translate(16.0001 20.5512) rotate(90) scale(8.8159 12.1147)">
<stop offset="0.205066" stop-color="#482641"/>
<stop offset="0.298574" stop-color="#503A4A"/>
<stop offset="0.408068" stop-color="#483637"/>
</radialGradient>
<radialGradient id="paint15_radial_31_62" cx="0" cy="0" r="1" gradientUnits="userSpaceOnUse" gradientTransform="translate(16.3878 17.1908) rotate(95.8118) scale(3.82898 6.02983)">
<stop offset="0.588241" stop-color="#4F302E" stop-opacity="0"/>
<stop offset="1" stop-color="#4F302E"/>
</radialGradient>
<radialGradient id="paint16_radial_31_62" cx="0" cy="0" r="1" gradientUnits="userSpaceOnUse" gradientTransform="translate(19.3331 19.7572) rotate(63.4349) scale(1.81014 0.876913)">
<stop stop-color="#5B4A50"/>
<stop offset="1" stop-color="#5B4A50" stop-opacity="0"/>
</radialGradient>
<linearGradient id="paint17_linear_31_62" x1="16.3824" y1="8.5" x2="15.8743" y2="13.2071" gradientUnits="userSpaceOnUse">
<stop stop-color="#553B3E"/>
<stop offset="1" stop-color="#3D2432"/>
</linearGradient>
<radialGradient id="paint18_radial_31_62" cx="0" cy="0" r="1" gradientUnits="userSpaceOnUse" gradientTransform="translate(13.5374 21.2686) rotate(108.591) scale(20.1516 21.032)">
<stop offset="0.104167" stop-color="#FFCC42"/>
<stop offset="0.537866" stop-color="#FFB02E"/>
<stop offset="1" stop-color="#F70A8D"/>
</radialGradient>
<radialGradient id="paint19_radial_31_62" cx="0" cy="0" r="1" gradientUnits="userSpaceOnUse" gradientTransform="translate(10.6225 22.6497) rotate(96.4582) scale(9.32199 9.6694)">
<stop offset="0.65203" stop-color="#FFB745" stop-opacity="0"/>
<stop offset="0.892907" stop-color="#F69044"/>
<stop offset="1" stop-color="#DE6A63"/>
</radialGradient>
<radialGradient id="paint20_radial_31_62" cx="0" cy="0" r="1" gradientUnits="userSpaceOnUse" gradientTransform="translate(9.34463 18.1683) rotate(90) scale(1.44833)">
<stop stop-color="#FFE646"/>
<stop offset="1" stop-color="#FFE646" stop-opacity="0"/>
</radialGradient>
<radialGradient id="paint21_radial_31_62" cx="0" cy="0" r="1" gradientUnits="userSpaceOnUse" gradientTransform="translate(9.67472 20.1716) rotate(79.0116) scale(2.79608 1.65249)">
<stop stop-color="#FFE646"/>
<stop offset="1" stop-color="#FFE646" stop-opacity="0"/>
</radialGradient>
<radialGradient id="paint22_radial_31_62" cx="0" cy="0" r="1" gradientUnits="userSpaceOnUse" gradientTransform="translate(10.4369 18.1641) rotate(62.0434) scale(2.24555 0.773895)">
<stop stop-color="#F6AB23"/>
<stop offset="1" stop-color="#F6AB23" stop-opacity="0"/>
</radialGradient>
<radialGradient id="paint23_radial_31_62" cx="0" cy="0" r="1" gradientUnits="userSpaceOnUse" gradientTransform="translate(10.5249 19.1094) rotate(93.1302) scale(2.81835 0.971302)">
<stop stop-color="#F6AB23"/>
<stop offset="1" stop-color="#F6AB23" stop-opacity="0"/>
</radialGradient>
<radialGradient id="paint24_radial_31_62" cx="0" cy="0" r="1" gradientUnits="userSpaceOnUse" gradientTransform="translate(11.9302 26.3335) rotate(89.1311) scale(4.66823 4.64012)">
<stop stop-color="#FFD24A"/>
<stop offset="1" stop-color="#FFD24A" stop-opacity="0"/>
</radialGradient>
<linearGradient id="paint25_linear_31_62" x1="3.89066" y1="31.5086" x2="10.5364" y2="23.7617" gradientUnits="userSpaceOnUse">
<stop stop-color="#AD583D"/>
<stop offset="1" stop-color="#CE6D4E" stop-opacity="0"/>
</linearGradient>
<radialGradient id="paint26_radial_31_62" cx="0" cy="0" r="1" gradientUnits="userSpaceOnUse" gradientTransform="translate(11.75 24.7001) rotate(2.62159) scale(2.89492 1.10719)">
<stop stop-color="#FFD339"/>
<stop offset="0.708333" stop-color="#FFC438" stop-opacity="0.291667"/>
<stop offset="1" stop-color="#FFBE38" stop-opacity="0"/>
</radialGradient>
<radialGradient id="paint27_radial_31_62" cx="0" cy="0" r="1" gradientUnits="userSpaceOnUse" gradientTransform="translate(13.5659 24) rotate(2.96689) scale(3.77343 1.26776)">
<stop stop-color="#A03B04"/>
<stop offset="1" stop-color="#FA9428" stop-opacity="0"/>
</radialGradient>
<linearGradient id="paint28_linear_31_62" x1="11.75" y1="26.8754" x2="11.5234" y2="25.8899" gradientUnits="userSpaceOnUse">
<stop stop-color="#FF9F3A"/>
<stop offset="0.879558" stop-color="#FF9F3A" stop-opacity="0"/>
</linearGradient>
<radialGradient id="paint29_radial_31_62" cx="0" cy="0" r="1" gradientUnits="userSpaceOnUse" gradientTransform="translate(11.4771 27.1681) rotate(-0.0381116) scale(3.16477 1.33186)">
<stop stop-color="#FFD339"/>
<stop offset="1" stop-color="#FFBE38" stop-opacity="0"/>
</radialGradient>
<radialGradient id="paint30_radial_31_62" cx="0" cy="0" r="1" gradientUnits="userSpaceOnUse" gradientTransform="translate(12.9161 26.353) rotate(2.66449) scale(3.1618 0.850636)">
<stop stop-color="#A03B04"/>
<stop offset="1" stop-color="#FA9428" stop-opacity="0"/>
</radialGradient>
<linearGradient id="paint31_linear_31_62" x1="11.6783" y1="29.2516" x2="11.4178" y2="28.2482" gradientUnits="userSpaceOnUse">
<stop stop-color="#FF9F3A"/>
<stop offset="0.879558" stop-color="#FF9F3A" stop-opacity="0"/>
</linearGradient>
<radialGradient id="paint32_radial_31_62" cx="0" cy="0" r="1" gradientUnits="userSpaceOnUse" gradientTransform="translate(12.6544 28.7776) rotate(4.63476) scale(2.75265 1.03464)">
<stop stop-color="#A03B04"/>
<stop offset="1" stop-color="#FA9428" stop-opacity="0"/>
</radialGradient>
<linearGradient id="paint33_linear_31_62" x1="11.6119" y1="32.7446" x2="11.247" y2="31.4971" gradientUnits="userSpaceOnUse">
<stop stop-color="#FF9F3A"/>
<stop offset="0.879558" stop-color="#FF9F3A" stop-opacity="0"/>
</linearGradient>
<radialGradient id="paint34_radial_31_62" cx="0" cy="0" r="1" gradientUnits="userSpaceOnUse" gradientTransform="translate(11.4458 29.7165) scale(2.5542 0.957282)">
<stop stop-color="#FFD339"/>
<stop offset="1" stop-color="#FFBE38" stop-opacity="0"/>
</radialGradient>
<linearGradient id="paint35_linear_31_62" x1="12.323" y1="24.2764" x2="12.1527" y2="23.2738" gradientUnits="userSpaceOnUse">
<stop stop-color="#FF9F3A"/>
<stop offset="0.879558" stop-color="#FF9F3A" stop-opacity="0"/>
</linearGradient>
<radialGradient id="paint36_radial_31_62" cx="0" cy="0" r="1" gradientUnits="userSpaceOnUse" gradientTransform="translate(13.6594 21.2238) rotate(88.6361) scale(0.843965 3.24731)">
<stop stop-color="#FF9F3A"/>
<stop offset="0.879558" stop-color="#FF9F3A" stop-opacity="0"/>
</radialGradient>
<radialGradient id="paint37_radial_31_62" cx="0" cy="0" r="1" gradientUnits="userSpaceOnUse" gradientTransform="translate(16.3223 22.5479) rotate(90) scale(1.45212 1.06948)">
<stop stop-color="#FFE646"/>
<stop offset="1" stop-color="#FFE646" stop-opacity="0"/>
</radialGradient>
<radialGradient id="paint38_radial_31_62" cx="0" cy="0" r="1" gradientUnits="userSpaceOnUse" gradientTransform="translate(12.7681 22.4431) rotate(0.227362) scale(3.52873 0.868332)">
<stop stop-color="#FFE646"/>
<stop offset="1" stop-color="#FFE646" stop-opacity="0"/>
</radialGradient>
<radialGradient id="paint39_radial_31_62" cx="0" cy="0" r="1" gradientUnits="userSpaceOnUse" gradientTransform="translate(11.6278 4.90776) rotate(-149.007) scale(2.72073 3.22241)">
<stop offset="0.552138" stop-color="#4A2F37"/>
<stop offset="0.822285" stop-color="#51394C"/>
<stop offset="0.881253" stop-color="#50394C"/>
<stop offset="1" stop-color="#4D3635"/>
</radialGradient>
<radialGradient id="paint40_radial_31_62" cx="0" cy="0" r="1" gradientUnits="userSpaceOnUse" gradientTransform="translate(12.7032 3.31186) rotate(-178.4) scale(0.495845 0.389993)">
<stop stop-color="#5A4950"/>
<stop offset="1" stop-color="#5D4C4F" stop-opacity="0"/>
</radialGradient>
<radialGradient id="paint41_radial_31_62" cx="0" cy="0" r="1" gradientUnits="userSpaceOnUse" gradientTransform="translate(21.5 9.55451) scale(4.39857 2.61692)">
<stop offset="0.641397" stop-color="#2F1F2A"/>
<stop offset="0.822285" stop-color="#51394C"/>
<stop offset="0.881253" stop-color="#50394C"/>
<stop offset="1" stop-color="#442E3E"/>
</radialGradient>
<radialGradient id="paint42_radial_31_62" cx="0" cy="0" r="1" gradientUnits="userSpaceOnUse" gradientTransform="translate(21.5 8) scale(3.69608 3.36735)">
<stop offset="0.645531" stop-color="#362530" stop-opacity="0"/>
<stop offset="1" stop-color="#342330"/>
</radialGradient>
</defs>
</svg>
